<?xml version="1.0" encoding="utf-8"?><svg xmlns="http://www.w3.org/2000/svg" xmlns:xlink="http://www.w3.org/1999/xlink" width="2758" height="1283" preserveAspectRatio="xMidYMid" viewBox="0 0 2758 1283" style="z-index:1;margin-right:-2px;display:block;background-repeat-y:initial;background-repeat-x:initial;background-color:rgb(255, 255, 255);animation-play-state:paused" ><g transform="" style="animation-play-state:paused" ><linearGradient id="lg-0.8262148892863597" x1="0" x2="1" y1="0" y2="0" style="animation-play-state:paused" ><stop stop-color="#05ead7" offset="0" style="animation-play-state:paused" ></stop>

  
<stop stop-color="#00ff04" offset="1" style="animation-play-state:paused" ></stop></linearGradient>
<path d="M 0 0 L 0 1079.96 Q 275.8 997.916 551.6 981.09 T 1103.2 1010.9 T 1654.8 876.561 T 2206.4 623.189 T 2758 551.378 L 2758 0 Z" fill="url(#lg-0.8262148892863597)" opacity="0.4" style="opacity:0.4;animation-play-state:paused" ></path>
<path d="M 0 0 L 0 1119.1 Q 275.8 1023.08 551.6 991.481 T 1103.2 999.753 T 1654.8 714.041 T 2206.4 726.533 T 2758 517.347 L 2758 0 Z" fill="url(#lg-0.8262148892863597)" opacity="0.4" style="opacity:0.4;animation-play-state:paused" ></path>
<path d="M 0 0 L 0 1155.36 Q 275.8 1174.3 551.6 1136.04 T 1103.2 933.703 T 1654.8 800.126 T 2206.4 729.098 T 2758 539.676 L 2758 0 Z" fill="url(#lg-0.8262148892863597)" opacity="0.4" style="opacity:0.4;animation-play-state:paused" ></path>
<path d="M 0 0 L 0 1094.13 Q 275.8 1100.92 551.6 1079.4 T 1103.2 919.375 T 1654.8 875.315 T 2206.4 715.264 T 2758 533.818 L 2758 0 Z" fill="url(#lg-0.8262148892863597)" opacity="0.4" style="opacity:0.4;animation-play-state:paused" ></path>
<path d="M 0 0 L 0 1165.69 Q 275.8 1152.42 551.6 1126.25 T 1103.2 965.575 T 1654.8 780.857 T 2206.4 771.589 T 2758 539.198 L 2758 0 Z" fill="url(#lg-0.8262148892863597)" opacity="0.4" style="opacity:0.4;animation-play-state:paused" ></path></g></svg>